<svg xmlns="http://www.w3.org/2000/svg" width="1280" height="640" viewBox="0 0 1280 640" role="img" aria-labelledby="title desc">
  <title id="title">AI Signal Guard</title>
  <desc id="desc">Client-side browser and network signal analyzer for AI services.</desc>
  <defs>
    <linearGradient id="paper" x1="0" x2="1" y1="0" y2="1">
      <stop offset="0" stop-color="#fbfbf8"/>
      <stop offset="1" stop-color="#eeeee7"/>
    </linearGradient>
    <filter id="softShadow" x="-20%" y="-20%" width="140%" height="140%">
      <feDropShadow dx="0" dy="24" stdDeviation="28" flood-color="#1f1f19" flood-opacity="0.14"/>
    </filter>
  </defs>
  <rect width="1280" height="640" fill="url(#paper)"/>
  <path d="M0 122H1280M0 244H1280M0 366H1280M0 488H1280M160 0V640M320 0V640M480 0V640M640 0V640M800 0V640M960 0V640M1120 0V640" stroke="#d9d9d0" stroke-width="1" opacity="0.32"/>
  <circle cx="1016" cy="142" r="190" fill="#7aa981" opacity="0.12"/>
  <circle cx="1090" cy="520" r="160" fill="#d4a94d" opacity="0.12"/>

  <g filter="url(#softShadow)">
    <rect x="96" y="82" width="1088" height="476" rx="28" fill="#ffffff" stroke="#deded7"/>
    <rect x="96" y="82" width="1088" height="76" rx="28" fill="#f7f7f4"/>
    <path d="M96 158H1184" stroke="#e7e7df"/>
    <circle cx="140" cy="120" r="8" fill="#d95745"/>
    <circle cx="168" cy="120" r="8" fill="#d4a94d"/>
    <circle cx="196" cy="120" r="8" fill="#6ca878"/>
    <text x="238" y="127" fill="#8f8f87" font-family="ui-monospace, SFMono-Regular, Menlo, Consolas, monospace" font-size="18">betaer.github.io/AISignalGuard</text>

    <g transform="translate(148 212)">
      <text x="0" y="0" fill="#8f8f87" font-family="ui-monospace, SFMono-Regular, Menlo, Consolas, monospace" font-size="18" letter-spacing="4">CLIENT-SIDE AI SIGNAL CHECKER</text>
      <text x="0" y="76" fill="#1a1a18" font-family="-apple-system, BlinkMacSystemFont, Helvetica Neue, PingFang SC, Microsoft YaHei, Arial, sans-serif" font-size="72" font-weight="700">AI Signal Guard</text>
      <text x="0" y="132" fill="#3f3f39" font-family="-apple-system, BlinkMacSystemFont, Helvetica Neue, PingFang SC, Microsoft YaHei, Arial, sans-serif" font-size="30">浏览器端 AI 账号网络与身份信号体检</text>
      <text x="0" y="182" fill="#5c5c55" font-family="-apple-system, BlinkMacSystemFont, Helvetica Neue, PingFang SC, Microsoft YaHei, Arial, sans-serif" font-size="24">IP · DNS · WebRTC · AI Path · Fingerprint · Trust Score</text>
    </g>

    <g transform="translate(830 220)">
      <circle cx="150" cy="150" r="116" fill="none" stroke="#e7e7e2" stroke-width="12"/>
      <path d="M150 34a116 116 0 1 1-93 46" fill="none" stroke="#6ca878" stroke-width="12" stroke-linecap="round"/>
      <text x="150" y="145" text-anchor="middle" fill="#1a1a18" font-family="ui-monospace, SFMono-Regular, Menlo, Consolas, monospace" font-size="68" font-weight="700">92</text>
      <text x="150" y="184" text-anchor="middle" fill="#6ca878" font-family="ui-monospace, SFMono-Regular, Menlo, Consolas, monospace" font-size="18" font-weight="700">TRUST SCORE</text>
    </g>

    <g transform="translate(148 462)" fill="none" stroke="#deded7">
      <rect width="178" height="42" rx="10"/>
      <rect x="196" width="178" height="42" rx="10"/>
      <rect x="392" width="178" height="42" rx="10"/>
      <rect x="588" width="178" height="42" rx="10"/>
    </g>
    <g transform="translate(172 489)" fill="#3f3f39" font-family="ui-monospace, SFMono-Regular, Menlo, Consolas, monospace" font-size="15">
      <text>8-source IP</text>
      <text x="196">DNS leak</text>
      <text x="392">WebRTC</text>
      <text x="588">Privacy mode</text>
    </g>
  </g>
</svg>
